<svg id="Lager_1" data-name="Lager 1" xmlns="http://www.w3.org/2000/svg" viewBox="0 0 1341.84 401.44"><defs><style>.cls-1{fill:#2e2eff;}</style></defs><g id="klippta"><path id="botten" class="cls-1" d="M455.11,308.32a21.81,21.81,0,0,1-9.2,5.3c5.7,6.9,9.4,17.1,9.4,28.4,0,20.7-12.1,37.5-27,37.5H50.41c-14.9,0-27-16.8-27-37.5,0-11.4,3.7-21.6,9.5-28.5a23.12,23.12,0,0,1-9.2-5.4c-6.9,8.6-11.1,20.5-11.1,33.9,0,26.6,16.6,47.5,37.8,47.5h377.9c21.2,0,37.8-20.9,37.8-47.5C466,328.72,461.91,316.82,455.11,308.32Z"/><g id="ost"><g id="ost-2" data-name="ost"><path class="cls-1" d="M438.91,279.52h0a12.5,12.5,0,1,1,0,25H341l-22.1,22.1a7.06,7.06,0,0,1-9.9,0h0l-22.1-22.1H39a12.5,12.5,0,1,1,0-25h399.9m0-10h-400a4.87,4.87,0,0,0-1.2.1,22.51,22.51,0,0,0,0,44.9c.4,0,.8.1,1.2.1h243.8l19.2,19.2a17,17,0,0,0,24,0l19.2-19.2h94.4a22.5,22.5,0,0,0,0-45h-.6Z"/></g></g><path class="cls-1" d="M40.81,210.72a22.74,22.74,0,0,1-8.6-7.2,100.62,100.62,0,0,0-3.2,26c0,15.7,3.2,29.6,8.5,40.1h.3c.4,0,.8-.1,1.2-.1H49c-6.1-9.1-10-23.6-10-40A87,87,0,0,1,40.81,210.72Z"/><path class="cls-1" d="M445.21,201.72a21.24,21.24,0,0,1-4.1,4.4,25.22,25.22,0,0,1-4.4,2.8,95.68,95.68,0,0,1,2.2,20.6c0,16.4-3.9,30.9-10,40h11.6c5.3-10.5,8.5-24.4,8.5-40A103.2,103.2,0,0,0,445.21,201.72Z"/><g id="dressing"><g id="dressing-2" data-name="dressing"><path class="cls-1" d="M446.11,190.12h-7.3v.3c0,13.5-25.6,13.9-25.6,13.9h-4.6c-4.7,4.7-10.6,6.2-16.3,6.2-10.9,0-21.3-5.6-22.4-6.2h-25.2c-6.8,6.8-12.3,9.1-16.7,9.1-8.3,0-12.2-8.2-12.6-9.1h-51.3a15.73,15.73,0,0,1-11.2,4.6c-6.8,0-13-3.8-14.2-4.6h-72.5c-6.8,14.5-14.4,19.3-21.6,19.3-13.7,0-25.8-17.5-26.9-19.3h-27c-6.8,6.7-11.5,8.9-14.7,8.9-5.7,0-6.9-7-7.1-8.9h-5.6s-1.4.1-3.5.1c-6.8,0-21.1-1.3-21.1-12.7,0-.6.1-1.2.1-1.7h-4.4a32.39,32.39,0,0,1-5.6-.5,15.48,15.48,0,0,0-.1,2.2c0,9,5.2,16.3,14.3,19.9a48.2,48.2,0,0,0,16.8,2.8h1.9a16.08,16.08,0,0,0,14.3,8.8c5.8,0,11.8-2.9,18.7-8.9h18c5.7,7.2,17.5,19.3,32,19.3a26.17,26.17,0,0,0,17.3-6.5,47.56,47.56,0,0,0,10.4-12.8h63.8a38.48,38.48,0,0,0,16.9,4.6,26.15,26.15,0,0,0,14.8-4.6h42.3c4,4.9,10.1,9.1,18.1,9.1,6.8,0,13.7-3,20.6-9.1h18.8c4.6,2.2,14.3,6.2,24.8,6.2a33.85,33.85,0,0,0,20-6.2h1.1a65.83,65.83,0,0,0,15.3-2.3,35.7,35.7,0,0,0,12.4-6,20,20,0,0,0,7.7-15.6V190C447.91,190.12,447,190.12,446.11,190.12Z"/></g></g><g id="seeds-2"><path class="cls-1" d="M85.11,127.22a3.34,3.34,0,0,1-2.3-.9c-1.7-1.7-.9-4.8,1.8-7.6a8.27,8.27,0,0,1,5.3-2.7,3.17,3.17,0,0,1,2.3.9c.5.5,1.4,1.8.5,4.1a8.92,8.92,0,0,1-2.3,3.4A7.75,7.75,0,0,1,85.11,127.22Z"/><path class="cls-1" d="M89.91,118.12a1.61,1.61,0,0,1,.9.3c.8.8,0,2.9-1.8,4.7a6.55,6.55,0,0,1-3.9,2.1,1.61,1.61,0,0,1-.9-.3c-.8-.8,0-2.9,1.8-4.7a6.55,6.55,0,0,1,3.9-2.1m0-4a10,10,0,0,0-6.7,3.3,12.48,12.48,0,0,0-2.8,4.1,5.46,5.46,0,0,0,1,6.2,5.14,5.14,0,0,0,3.7,1.5,10,10,0,0,0,6.7-3.3c3.6-3.6,4.3-7.9,1.8-10.4a5.49,5.49,0,0,0-3.7-1.4Z"/><path class="cls-1" d="M145.41,89.52c-2.8,0-5.1-2.8-5.1-6.4s2.2-6.4,5.1-6.4,5.1,2.8,5.1,6.4S148.31,89.52,145.41,89.52Z"/><path class="cls-1" d="M145.41,78.72c1.7,0,3.1,2,3.1,4.4s-1.4,4.4-3.1,4.4-3.1-2-3.1-4.4,1.4-4.4,3.1-4.4m0-4c-4,0-7.1,3.7-7.1,8.4s3.1,8.4,7.1,8.4,7.1-3.7,7.1-8.4S149.41,74.72,145.41,74.72Z"/><path class="cls-1" d="M215.41,132.52H215a4.12,4.12,0,0,1-3.1-3,10.46,10.46,0,0,1-.3-4.3c.4-3.1,2-6.3,4.6-6.3h.4c2.5.3,3.9,3.3,3.4,7.3C219.71,129.32,218.11,132.52,215.41,132.52Z"/><path class="cls-1" d="M216.31,120.92h.1c1.2.1,1.9,2.4,1.6,5.1s-1.5,4.6-2.7,4.6h-.1c-1.2-.1-2-2.4-1.6-5.1s1.6-4.6,2.7-4.6m0-4h0c-3.4,0-6,3.3-6.6,8.1a13.12,13.12,0,0,0,.4,5.2,5.64,5.64,0,0,0,4.7,4.3h.6c3.4,0,6-3.2,6.6-8.1a13.12,13.12,0,0,0-.4-5.2,5.8,5.8,0,0,0-4.7-4.4,1.27,1.27,0,0,0-.6.1Z"/><path class="cls-1" d="M297.81,88.12c-2.8,0-5.2-3.1-5.6-7.3a11.53,11.53,0,0,1,.7-5.2,4.7,4.7,0,0,1,3.7-3.1h.3c2.8,0,5.2,3.1,5.5,7.3a10.31,10.31,0,0,1-.7,5.2,4.88,4.88,0,0,1-3.7,3.1Z"/><path class="cls-1" d="M297.11,74.52c1.7,0,3.3,2.4,3.6,5.5s-.9,5.9-2.6,6.1h-.2c-1.7,0-3.3-2.4-3.6-5.5s.9-5.9,2.6-6.1h.2m0-4h-.5a6.68,6.68,0,0,0-5.4,4.3,12.81,12.81,0,0,0-.9,6.1c.5,5.3,3.7,9.1,7.5,9.1h.5a6.68,6.68,0,0,0,5.4-4.3,12.81,12.81,0,0,0,.9-6.1C304.11,74.42,300.91,70.52,297.11,70.52Z"/><path class="cls-1" d="M366.71,134.12c-2.1,0-3.9-2.1-4.6-5.4a8.56,8.56,0,0,1,0-3.9,3.66,3.66,0,0,1,2.7-2.9c.2,0,.4-.1.6-.1,2.1,0,3.9,2.1,4.6,5.4a8.56,8.56,0,0,1,0,3.9,3.52,3.52,0,0,1-2.7,2.9A1.27,1.27,0,0,1,366.71,134.12Z"/><path class="cls-1" d="M365.51,123.82c1,0,2.2,1.6,2.6,3.8s-.1,4.3-1.2,4.5h-.2c-1,0-2.2-1.6-2.6-3.8s.1-4.3,1.2-4.5h.2m0-4h0a3.4,3.4,0,0,0-1,.1c-3.4.7-5.2,4.6-4.3,9.2.8,4.2,3.4,7,6.5,7a3.4,3.4,0,0,0,1-.1,5.7,5.7,0,0,0,4.3-4.4,11.11,11.11,0,0,0,.1-4.8c-.9-4.2-3.5-7-6.6-7Z"/><path class="cls-1" d="M400.31,112a2.77,2.77,0,0,1-.9-.1c-2.3-.7-3-4-1.8-7.9.8-2.6,2.6-5.6,5.1-5.6a2.77,2.77,0,0,1,.9.1c.6.2,2.1.9,2.4,3.6a10.45,10.45,0,0,1-.6,4.3C404.61,109,402.81,112,400.31,112Z"/><path class="cls-1" d="M402.71,100.32h.3c1.1.4,1.3,2.8.5,5.4-.8,2.4-2.1,4.2-3.2,4.2H400c-1.1-.3-1.3-2.8-.5-5.4.8-2.4,2.2-4.2,3.2-4.2m0-4h0c-3.6,0-6,3.6-7,7a12.57,12.57,0,0,0-.6,5.1c.3,3.8,2.7,5,3.8,5.3a7.72,7.72,0,0,0,1.5.2c3.6,0,6-3.6,7-7a12.57,12.57,0,0,0,.6-5.1c-.3-3.8-2.7-5-3.8-5.3a7.72,7.72,0,0,0-1.5-.2Z"/></g><path class="cls-1" d="M234.81,19.12H238l2.5.1c41.6,1.4,84.4,9.3,123.1,25,26.1,10.6,51.5,25.6,69.8,47.9,15.1,18.4,29.5,49.2,26,75.1,0,12-5,12.9-13.3,12.9H34.31c-16.3,0-17-14.1-15.4-28.3,7-63.2,60.7-99.1,115.4-116.2,32-10.1,66.9-16.6,100.5-16.5m0-10.1h0c-32.1,0-67.9,5.9-103.4,16.9-31.7,9.9-59.1,24.7-79.3,42.9-25.1,22.5-39.5,50-43.1,81.8-1.2,10.9-1.4,23.3,6.1,31.7,4.6,5.1,11.1,7.7,19.2,7.7h411.8c5.3,0,11-.3,15.8-3.9,6.5-4.9,7.4-12.6,7.5-18.3,1.6-13.4-.7-28.8-6.7-44.6a138.73,138.73,0,0,0-21.6-37.5c-17.1-20.8-41.9-37.9-73.8-50.8-37.9-15.4-81.6-24.3-126.6-25.7h-.1a22.6,22.6,0,0,1-2.6-.1c-1,0-2.1,0-3.2-.1Z"/></g><g id="terese_thulin" data-name="terese thulin"><path class="cls-1" d="M594.64,65.77H617V47.27l27-17v35.5h43.4v16.5h-43.3v42.8c0,11.6,4.6,18.5,16.7,18.5,15,0,22.4-13.6,22.4-13.6l5.4,18.4s-11.3,13.9-35.5,13.9c-22.8,0-36.7-10.9-36.7-35.2V82.17h-21.8Z"/><path class="cls-1" d="M766.64,143.67c25.8,0,26-21.8,26-21.8l27.2,7s-7.1,33.5-56.1,33.5c-30.4,0-57.3-17.5-57.3-49.5,0-28,22.1-49.3,57.3-49.3,53.2,0,56.1,39.3,53.6,52.7l-82.6-1.7C734.84,129.17,743.74,143.67,766.64,143.67Zm-3.4-62.2c-23.5,0-26.9,19.9-26.9,19.9l51.8-1.7c.1-.1-2.3-18.3-24.9-18.2Z"/><path class="cls-1" d="M877.64,160.17h-28V65.77h16.3l8,26.7s-.3-28.9,27-28.9c19.5,0,25.3,11.4,25.3,24.6,0,11.7-2.2,18-2.2,18l-27.2,7a85,85,0,0,0,2.9-22.4c0-7-4.2-8.5-7.5-8.5-11.9,0-14.6,20.6-14.6,20.6Z"/><path class="cls-1" d="M1006,143.67c25.8,0,26-21.8,26-21.8l27.2,7s-7.1,33.5-56.1,33.5c-30.4,0-57.3-17.5-57.3-49.5,0-28,22.1-49.3,57.3-49.3,53.2,0,56.1,39.3,53.5,52.7l-82.6-1.7C974.24,129.17,983,143.67,1006,143.67Zm-3.4-62.2c-23.5,0-26.9,19.9-26.9,19.9l51.8-1.7c.1-.1-2.3-18.3-24.9-18.2Z"/><path class="cls-1" d="M1137.24,143.67c11.2,0,20.9-3.2,20.9-9.9,0-5.8-5.8-8.7-19-11l-22.1-4.1c-15-2.7-31.8-8.5-31.8-25.7,0-18.7,19.7-29.4,44.5-29.4,47.1,0,51,27.5,51,27.5l-27.2,7s-.8-16.7-25-16.7c-11.9,0-17.3,5.1-17.3,9.9,0,5.6,7,7.1,18,9l23.8,3.9c23.8,3.9,32.8,14.8,32.8,28.7,0,19.2-21.8,29.4-49,29.4-54.2,0-56.4-33-56.4-33l27.2-7C1107.64,122.37,1107.54,143.67,1137.24,143.67Z"/><path class="cls-1" d="M1267.34,143.67c25.8,0,26-21.8,26-21.8l27.2,7s-7.1,33.5-56.1,33.5c-30.4,0-57.3-17.5-57.3-49.5,0-28,22.1-49.3,57.3-49.3,53.2,0,56.1,39.3,53.5,52.7l-82.6-1.7C1235.54,129.17,1244.34,143.67,1267.34,143.67Zm-3.4-62.2c-23.5,0-26.9,19.9-26.9,19.9l51.8-1.7c.1-.1-2.3-18.3-24.9-18.2Z"/><path class="cls-1" d="M594.84,266.77h22.4v-18.5l27-17v35.5h43.4v16.5h-43.3v42.8c0,11.6,4.6,18.5,16.7,18.5,15,0,22.4-13.6,22.4-13.6l5.4,18.4s-11.2,13.9-35.5,13.9c-22.8,0-36.7-10.9-36.7-35.2v-44.9h-21.8Z"/><path class="cls-1" d="M739.94,289.87c.3-2.2,5.1-25.3,36.9-25.3,29.2,0,43,14.8,43,38.8v57.8h-27.9v-59.1c0-12.6-9.5-18.7-22.8-18.7-24.3,0-29.2,20.7-29.2,20.7v57.1h-28.1V229.07a163.69,163.69,0,0,0,28-2.4v63.2Z"/><path class="cls-1" d="M882.54,326c0,12.6,8.8,18.7,24,18.7,22.3,0,28-20.7,28-20.7v-57.1h28v94.3h-16.3l-8-26.7s-2,28.9-39.4,28.9c-31.3,0-44.2-14.8-44.2-38.8v-57.8h27.9Z"/><path class="cls-1" d="M997.44,229.07a186.71,186.71,0,0,0,28-2.4v134.5h-28Z"/><path class="cls-1" d="M1060.34,229.07h28v21.6h-28Zm0,37.7h28v94.3h-28Z"/><path class="cls-1" d="M1203.14,302c0-12.6-8.7-18.7-23.8-18.7-22.3,0-28,20.7-28,20.7v57.1h-28v-94.3h16.3l8,26.7s2-28.9,39.4-28.9c31.3,0,44.2,14.8,44.2,38.8v57.8h-28.1Z"/></g></svg>